<svg viewBox="0 0 720 420" style="width:100%;display:block">
<rect width="720" height="420" fill="#FDFBF7" rx="6"/>
<line x1="100" y1="32" x2="100" y2="340" stroke="#E8E4DE" stroke-width="0.5"/>
<line x1="100" y1="340" x2="692" y2="340" stroke="#E8E4DE" stroke-width="0.5"/>
<text x="14" y="190" text-anchor="middle" font-size="10" fill="#8B8680" font-family="DM Sans,system-ui" transform="rotate(-90 14 190)">Final test accuracy after 10K more steps</text>
<text x="94" y="344" text-anchor="end" font-size="10" fill="#8B8680" font-family="DM Sans,system-ui">0%</text>
<line x1="100" y1="278" x2="692" y2="278" stroke="#E8E4DE" stroke-width="0.3"/>
<text x="94" y="282" text-anchor="end" font-size="10" fill="#8B8680" font-family="DM Sans,system-ui">20%</text>
<line x1="100" y1="216" x2="692" y2="216" stroke="#E8E4DE" stroke-width="0.3"/>
<text x="94" y="220" text-anchor="end" font-size="10" fill="#8B8680" font-family="DM Sans,system-ui">40%</text>
<line x1="100" y1="155" x2="692" y2="155" stroke="#E8E4DE" stroke-width="0.3"/>
<text x="94" y="159" text-anchor="end" font-size="10" fill="#8B8680" font-family="DM Sans,system-ui">60%</text>
<line x1="100" y1="93" x2="692" y2="93" stroke="#E8E4DE" stroke-width="0.3"/>
<text x="94" y="97" text-anchor="end" font-size="10" fill="#8B8680" font-family="DM Sans,system-ui">80%</text>
<line x1="100" y1="32" x2="692" y2="32" stroke="#E8E4DE" stroke-width="0.3"/>
<text x="94" y="36" text-anchor="end" font-size="10" fill="#8B8680" font-family="DM Sans,system-ui">100%</text>
<rect x="118" y="241" width="24" height="99" rx="3" fill="#BFBAB3" opacity="0.7"/>
<rect x="150" y="44" width="24" height="296" rx="3" fill="#2D8B46" opacity="0.85"/>
<text x="130" y="237" text-anchor="middle" font-size="9" fill="#4A4A4A" font-family="DM Sans,system-ui">32%</text>
<text x="162" y="40" text-anchor="middle" font-size="9" font-weight="600" fill="#2D8B46" font-family="DM Sans,system-ui">96%</text>
<text x="146" y="370" text-anchor="middle" font-size="9" fill="#4A4A4A" font-family="DM Sans,system-ui">entry</text>
<text x="146" y="382" text-anchor="middle" font-size="9" fill="#4A4A4A" font-family="DM Sans,system-ui">layer</text>
<rect x="208" y="275" width="24" height="65" rx="3" fill="#BFBAB3" opacity="0.7"/>
<rect x="240" y="75" width="24" height="265" rx="3" fill="#2D8B46" opacity="0.85"/>
<text x="220" y="271" text-anchor="middle" font-size="9" fill="#4A4A4A" font-family="DM Sans,system-ui">21%</text>
<text x="252" y="71" text-anchor="middle" font-size="9" font-weight="600" fill="#2D8B46" font-family="DM Sans,system-ui">86%</text>
<text x="236" y="370" text-anchor="middle" font-size="9" fill="#4A4A4A" font-family="DM Sans,system-ui">exit</text>
<text x="236" y="382" text-anchor="middle" font-size="9" fill="#4A4A4A" font-family="DM Sans,system-ui">MLP</text>
<rect x="298" y="214" width="24" height="126" rx="3" fill="#BFBAB3" opacity="0.7"/>
<rect x="330" y="47" width="24" height="293" rx="3" fill="#2D8B46" opacity="0.85"/>
<text x="310" y="210" text-anchor="middle" font-size="9" fill="#4A4A4A" font-family="DM Sans,system-ui">41%</text>
<text x="342" y="43" text-anchor="middle" font-size="9" font-weight="600" fill="#2D8B46" font-family="DM Sans,system-ui">95%</text>
<text x="326" y="370" text-anchor="middle" font-size="9" fill="#4A4A4A" font-family="DM Sans,system-ui">output</text>
<text x="326" y="382" text-anchor="middle" font-size="9" fill="#4A4A4A" font-family="DM Sans,system-ui">head</text>
<line x1="380" y1="32" x2="380" y2="340" stroke="#E8E4DE" stroke-width="0.5" stroke-dasharray="4 3"/>
<rect x="398" y="328" width="24" height="12" rx="3" fill="#C45D3E" opacity="0.6"/>
<rect x="430" y="312" width="24" height="28" rx="3" fill="#C45D3E" opacity="0.8"/>
<text x="410" y="324" text-anchor="middle" font-size="9" fill="#C45D3E" font-family="DM Sans,system-ui">4%</text>
<text x="442" y="308" text-anchor="middle" font-size="9" fill="#C45D3E" font-family="DM Sans,system-ui">9%</text>
<text x="426" y="370" text-anchor="middle" font-size="9" fill="#4A4A4A" font-family="DM Sans,system-ui">middle</text>
<text x="426" y="382" text-anchor="middle" font-size="9" fill="#4A4A4A" font-family="DM Sans,system-ui">layers</text>
<rect x="478" y="331" width="24" height="9" rx="3" fill="#C45D3E" opacity="0.6"/>
<rect x="510" y="312" width="24" height="28" rx="3" fill="#C45D3E" opacity="0.8"/>
<text x="490" y="327" text-anchor="middle" font-size="9" fill="#C45D3E" font-family="DM Sans,system-ui">3%</text>
<text x="522" y="308" text-anchor="middle" font-size="9" fill="#C45D3E" font-family="DM Sans,system-ui">9%</text>
<text x="506" y="370" text-anchor="middle" font-size="9" fill="#4A4A4A" font-family="DM Sans,system-ui">no wt</text>
<text x="506" y="382" text-anchor="middle" font-size="9" fill="#4A4A4A" font-family="DM Sans,system-ui">decay</text>
<rect x="558" y="103" width="24" height="237" rx="3" fill="#2D8B46" opacity="0.4"/>
<rect x="590" y="35" width="24" height="305" rx="3" fill="#2D8B46" opacity="0.7"/>
<text x="570" y="99" text-anchor="middle" font-size="9" fill="#2D8B46" font-family="DM Sans,system-ui">77%</text>
<text x="602" y="31" text-anchor="middle" font-size="9" font-weight="600" fill="#2D8B46" font-family="DM Sans,system-ui">99%</text>
<text x="586" y="370" text-anchor="middle" font-size="9" fill="#4A4A4A" font-family="DM Sans,system-ui">embed</text>
<text x="586" y="382" text-anchor="middle" font-size="9" fill="#4A4A4A" font-family="DM Sans,system-ui">(frozen)</text>
<rect x="108" y="395" width="280" height="20" rx="4" fill="none"/>
<rect x="108" y="397" width="10" height="10" rx="2" fill="#BFBAB3" opacity="0.7"/>
<text x="123" y="406" font-size="10" fill="#4A4A4A" font-family="DM Sans,system-ui">From ckpt 7K</text>
<rect x="208" y="397" width="10" height="10" rx="2" fill="#2D8B46" opacity="0.85"/>
<text x="223" y="406" font-size="10" fill="#4A4A4A" font-family="DM Sans,system-ui">From ckpt 11K</text>
<rect x="323" y="397" width="10" height="10" rx="2" fill="#C45D3E" opacity="0.7"/>
<text x="338" y="406" font-size="10" fill="#4A4A4A" font-family="DM Sans,system-ui">Blocked (both)</text>
<text x="240" y="58" text-anchor="middle" font-size="10" font-weight="600" fill="#2D8B46" font-family="DM Sans,system-ui">Phase-dependent: blocked → grokked</text>
<text x="510" y="58" text-anchor="middle" font-size="10" font-weight="600" fill="#C45D3E" font-family="DM Sans,system-ui">Always essential</text>
</svg>
